<svg xmlns="http://www.w3.org/2000/svg" viewBox="0 0 586.96 505"><defs><style>.cls-1{fill:#363c51;}.cls-2{fill:#bf350e;}.cls-3{fill:#f1f2f2;}.cls-4{fill:#bcbec0;}.cls-5{fill:#ff4612;}.cls-6{fill:#fff;}</style></defs><title>email</title><g id="Layer_2" data-name="Layer 2"><g id="Layer_1-2" data-name="Layer 1"><g id="illustration"><ellipse class="cls-1" cx="290.8" cy="267.28" rx="198.29" ry="197.93"/><path class="cls-1" d="M87.46,358a13.85,13.85,0,1,0,13.87,13.85A13.86,13.86,0,0,0,87.46,358Zm0,19.45a5.61,5.61,0,1,1,5.61-5.6A5.61,5.61,0,0,1,87.46,377.44Z"/><path class="cls-1" d="M154.2,39.19A13.86,13.86,0,1,0,168.07,53,13.86,13.86,0,0,0,154.2,39.19Zm0,19.46A5.61,5.61,0,1,1,159.81,53,5.61,5.61,0,0,1,154.2,58.65Z"/><path class="cls-1" d="M459.3,414a13.86,13.86,0,1,0,13.87,13.86A13.87,13.87,0,0,0,459.3,414Zm0,19.46a5.61,5.61,0,1,1,5.61-5.6A5.61,5.61,0,0,1,459.3,433.49Z"/><path class="cls-1" d="M572.82,198.91a10.61,10.61,0,1,0,10.63,10.6A10.61,10.61,0,0,0,572.82,198.91Zm0,14.89a4.29,4.29,0,1,1,4.3-4.29A4.3,4.3,0,0,1,572.82,213.8Z"/><path class="cls-1" d="M385.74,29.26A11.21,11.21,0,1,0,397,40.47,11.22,11.22,0,0,0,385.74,29.26Zm0,15.75a4.54,4.54,0,1,1,4.55-4.54A4.54,4.54,0,0,1,385.74,45Z"/><path class="cls-1" d="M26.41,290.52a11.79,11.79,0,1,0,11.82,11.79A11.8,11.8,0,0,0,26.41,290.52Z"/><path class="cls-1" d="M500.27,329.55a8.57,8.57,0,1,0,8.59,8.57A8.57,8.57,0,0,0,500.27,329.55Z"/><path class="cls-1" d="M215.79,32.78a12.54,12.54,0,1,0,12.56,12.53A12.54,12.54,0,0,0,215.79,32.78Z"/><path class="cls-1" d="M116.43,80.7A12.53,12.53,0,1,0,129,93.23,12.54,12.54,0,0,0,116.43,80.7Z"/><path class="cls-1" d="M283,486.74a9.13,9.13,0,1,0,9.15,9.13A9.13,9.13,0,0,0,283,486.74Z"/><path class="cls-1" d="M460.1,81.12a10.72,10.72,0,1,0,10.74,10.72A10.73,10.73,0,0,0,460.1,81.12Z"/><ellipse class="cls-1" cx="79.75" cy="170.55" rx="6.11" ry="6.1"/><path class="cls-1" d="M576.53,145.45A10.41,10.41,0,1,0,587,155.86,10.41,10.41,0,0,0,576.53,145.45Z"/><ellipse class="cls-1" cx="20.56" cy="207.17" rx="6.65" ry="6.64"/><path class="cls-1" d="M300.26,10.51l4.18-4.17a3.72,3.72,0,0,0,0-5.26,3.75,3.75,0,0,0-5.27,0L295,5.26l-4.18-4.18a3.75,3.75,0,0,0-5.27,0,3.72,3.72,0,0,0,0,5.26l4.18,4.17-4.18,4.17a3.72,3.72,0,1,0,5.27,5.26L295,15.77l4.17,4.17a3.72,3.72,0,1,0,5.27-5.26Z"/><path class="cls-1" d="M93.23,31.18,97.41,27a3.72,3.72,0,1,0-5.27-5.26L88,25.92l-4.18-4.17A3.72,3.72,0,0,0,78.52,27l4.18,4.17-4.18,4.17a3.72,3.72,0,0,0,5.26,5.26L88,36.44l4.18,4.17a3.72,3.72,0,1,0,5.27-5.26Z"/><path class="cls-1" d="M15.8,136.57,20,132.4a3.72,3.72,0,0,0-5.27-5.26l-4.18,4.17-4.18-4.17a3.72,3.72,0,0,0-5.26,5.26l4.18,4.17-4.18,4.17A3.72,3.72,0,0,0,6.35,146l4.18-4.17L14.71,146A3.72,3.72,0,0,0,20,140.74Z"/><path class="cls-1" d="M68.31,239.29l4.18-4.18a3.72,3.72,0,0,0-5.26-5.25L63.05,234l-4.18-4.17a3.72,3.72,0,0,0-5.27,5.25l4.18,4.18-4.18,4.17a3.72,3.72,0,0,0,5.27,5.25l4.18-4.17,4.18,4.17a3.72,3.72,0,1,0,5.26-5.25Z"/><path class="cls-1" d="M508.67,391.28l3.54-3.53a3.15,3.15,0,1,0-4.46-4.46l-3.54,3.53-3.54-3.53a3.15,3.15,0,1,0-4.46,4.46l3.54,3.53-3.54,3.53a3.15,3.15,0,0,0,4.46,4.45l3.54-3.53,3.54,3.53a3.15,3.15,0,0,0,4.46-4.45Z"/><path class="cls-2" d="M428.12,314.86l-143.9,84.7-143.9-84.7a1,1,0,0,1,0-.24c.12-.54,8.06-7.15,20.17-17,.12-.09.21-.18.33-.28,39.74-32.2,123.38-98.15,123.38-98.15s83.64,66,123.37,98.15c12.3,10,20.38,16.7,20.5,17.26A.66.66,0,0,1,428.12,314.86Z"/><path class="cls-3" d="M343.4,129.06H188.14A24.09,24.09,0,0,0,164,153.13V387.45a24.09,24.09,0,0,0,24.11,24.07H382.68a24.09,24.09,0,0,0,24.11-24.07V192.35Z"/><path class="cls-4" d="M343.4,168.28a24.09,24.09,0,0,0,24.11,24.07h39.28L343.4,129.06Z"/><path class="cls-5" d="M266.2,168.67H206a5.29,5.29,0,0,0-5.29,5.28V234a5.29,5.29,0,0,0,5.29,5.29H266.2a5.29,5.29,0,0,0,5.29-5.29V174A5.29,5.29,0,0,0,266.2,168.67Z"/><path class="cls-4" d="M336.28,258.91H207.76a6.91,6.91,0,0,0-6.92,6.91h0a6.91,6.91,0,0,0,6.92,6.9H336.28a6.91,6.91,0,0,0,6.92-6.9h0A6.91,6.91,0,0,0,336.28,258.91Z"/><path class="cls-4" d="M336.28,293.32H207.76a6.91,6.91,0,0,0-6.92,6.91h0a6.91,6.91,0,0,0,6.92,6.91H336.28a6.92,6.92,0,0,0,6.92-6.91h0A6.91,6.91,0,0,0,336.28,293.32Z"/><path class="cls-4" d="M277.91,326.7H207.76a6.91,6.91,0,0,0-6.92,6.91h0a6.91,6.91,0,0,0,6.92,6.91h70.15a6.91,6.91,0,0,0,6.92-6.91h0A6.92,6.92,0,0,0,277.91,326.7Z"/><path class="cls-5" d="M428.13,314.85v137.8a17.56,17.56,0,0,1-17.53,17.5H157.82a17.52,17.52,0,0,1-17.49-17.5V314.85l143.9,84.69Z"/><path class="cls-2" d="M423.27,464.67l-92.62-92.45-46.42,27.32L237.8,372.21l-92.63,92.45a17.37,17.37,0,0,0,12.65,5.49H410.6A17.46,17.46,0,0,0,423.27,464.67Z"/><path class="cls-5" d="M478.46,317.75a4.12,4.12,0,0,1-.4-8.23A98.1,98.1,0,0,0,542.72,276a4.13,4.13,0,0,1,6.23,5.42,106.35,106.35,0,0,1-70.09,36.28A2.75,2.75,0,0,1,478.46,317.75Z"/><path class="cls-5" d="M457.19,125.68c-41.42,4.06-74.51,38.14-77.48,79.59a85.61,85.61,0,0,0,15.17,55.28,20.88,20.88,0,0,1,2,19.94L390,296.91,418,289.68a21.12,21.12,0,0,1,13.67,1.06,86.34,86.34,0,0,0,42.84,6.68c40.66-3.93,73.56-36.71,77.48-77.29A86.4,86.4,0,0,0,457.19,125.68Z"/><path class="cls-6" d="M468.08,255.15l4.75-4.74s-3.78-8.88,12-23.85c9.42-8.91,11.53-17.54,10.76-24.59A24.68,24.68,0,0,0,474,180.35c-7.07-.76-15.71,1.34-24.64,10.74-15,15.79-23.89,12-23.89,12l-4.75,4.74Z"/><path class="cls-6" d="M431.42,226.18a13.08,13.08,0,0,0,18.3,18.27Z"/><path class="cls-6" d="M499,186.11l-3,2.95a28.56,28.56,0,0,0-9.12-9.05l3-3a6.42,6.42,0,1,1,9.09,9.08Z"/></g></g></g></svg>