<?xml version="1.0" encoding="utf-8"?>
<!-- Generator: Adobe Illustrator 16.0.0, SVG Export Plug-In . SVG Version: 6.00 Build 0)  -->
<!DOCTYPE svg PUBLIC "-//W3C//DTD SVG 1.1//EN" "http://www.w3.org/Graphics/SVG/1.1/DTD/svg11.dtd">
<svg version="1.1" id="Capa_1" xmlns="http://www.w3.org/2000/svg" xmlns:xlink="http://www.w3.org/1999/xlink" x="0px" y="0px"
	 width="240px" height="240px" viewBox="0 0 240 240" enable-background="new 0 0 240 240" xml:space="preserve">
<path fill="#ff4612" d="M197.199,1H43.502C19.923,1,0.808,20.114,0.808,43.694v153.696c0,23.58,19.115,42.693,42.694,42.693h153.697
	c23.579,0,42.694-19.113,42.694-42.693V43.694C239.894,20.114,220.778,1,197.199,1"/>
<path fill="#FFFFFF" d="M177.26,89.014h-35.691l-17.669,89.23c-1.817,9.502-10.834,18.998-23.677,23.672
	c-17.062,6.209-34.416,1.563-38.763-10.381c-4.346-11.941,5.96-26.658,23.021-32.867c9.916-3.609,19.927-3.545,27.43-0.518
	l13.689-69.137H92.727l2.976-15.028h32.874l6.51-32.874l16.896-4.697l-7.438,37.571h35.691L177.26,89.014z"/>
</svg>
