<?xml version="1.0" encoding="utf-8"?>
<!-- Generator: Adobe Illustrator 16.0.0, SVG Export Plug-In . SVG Version: 6.00 Build 0)  -->
<!DOCTYPE svg PUBLIC "-//W3C//DTD SVG 1.1//EN" "http://www.w3.org/Graphics/SVG/1.1/DTD/svg11.dtd">
<svg version="1.1" id="Capa_1" xmlns="http://www.w3.org/2000/svg" xmlns:xlink="http://www.w3.org/1999/xlink" x="0px" y="0px"
	 width="585px" height="215px" viewBox="0 0 585 215" enable-background="new 0 0 585 215" xml:space="preserve">
<rect x="-1.5" y="-1" display="none" fill="#fff" width="588.5" height="217"/>
<g>
	<path clip-path="url(#SVGID_2_)" fill="#fff" d="M42.114,128.104c-4.604,0-8.191-1.269-10.765-3.803
		c-2.575-2.534-3.861-5.947-3.861-10.239c0-3.979,0.798-7.526,2.398-10.648c1.598-3.119,3.821-5.558,6.67-7.313
		c2.847-1.755,6.064-2.633,9.653-2.633c6.629,0,11.309,2.849,14.042,8.543l15.446-7.724c-2.42-5.07-6.067-8.989-10.942-11.759
		c-4.876-2.768-10.668-4.153-17.375-4.153c-7.334,0-13.925,1.599-19.776,4.796c-5.85,3.2-10.413,7.568-13.69,13.106
		C10.638,101.816,9,108.058,9,115c0,5.615,1.305,10.551,3.92,14.802c2.612,4.252,6.337,7.546,11.174,9.886
		c4.836,2.34,10.491,3.512,16.966,3.512c6.396,0,12.228-1.326,17.494-3.979c5.265-2.651,9.419-6.357,12.462-11.116L57.56,119.68
		C53.97,125.295,48.822,128.104,42.114,128.104"/>
	<path clip-path="url(#SVGID_2_)" fill="#fff" d="M130.523,110.085c-3.979-6.319-10.805-9.479-20.477-9.479
		c-6.398,0-12.248,1.58-17.551,4.74c-5.306,3.158-9.499,7.528-12.579,13.104c-3.083,5.578-4.622,11.838-4.622,18.78
		c0,5.773,1.228,10.784,3.686,15.035c2.457,4.253,5.751,7.509,9.887,9.771c4.134,2.265,8.659,3.394,13.573,3.394
		c7.644,0,14.079-2.378,19.307-7.138l-1.17,6.201h17.317l12.521-62.95h-18.254L130.523,110.085z M124.204,140.391
		c-1.561,3.121-3.745,5.559-6.552,7.313c-2.809,1.756-6.009,2.634-9.595,2.634c-4.525,0-8.056-1.247-10.589-3.744
		c-2.536-2.496-3.804-5.89-3.804-10.181c0-4.056,0.779-7.645,2.341-10.766c1.56-3.119,3.744-5.558,6.552-7.313
		c2.809-1.756,6.006-2.633,9.595-2.633c4.523,0,8.054,1.25,10.59,3.744c2.534,2.497,3.802,5.892,3.802,10.181
		C126.544,133.683,125.764,137.271,124.204,140.391"/>
	<path clip-path="url(#SVGID_2_)" fill="#fff" d="M179.317,110.318c1.091-5.381,3.177-9.418,6.26-12.109
		c3.08-2.692,6.962-4.037,11.642-4.037c3.587,0,6.278,0.859,8.074,2.574c1.794,1.717,2.691,4.212,2.691,7.489
		c0,1.561-0.157,3.003-0.468,4.33l-6.786,33.698h18.253l7.021-34.869c0.544-2.496,0.819-5.032,0.819-7.606
		c0-6.863-2.068-12.149-6.201-15.855c-4.136-3.704-9.712-5.558-16.733-5.558c-8.191,0-15.094,2.574-20.711,7.723l1.405-6.787
		h-17.319l-12.519,62.952h18.253L179.317,110.318z"/>
	<path clip-path="url(#SVGID_2_)" fill="#fff" d="M331.264,83.056c-4.76-2.341-10.338-3.511-16.731-3.511
		c-7.255,0-13.771,1.6-19.541,4.798c-5.774,3.199-10.297,7.567-13.575,13.105c-3.275,5.54-4.913,11.779-4.913,18.722
		c0,5.615,1.305,10.551,3.919,14.802c2.613,4.252,6.32,7.546,11.116,9.887c4.797,2.341,10.354,3.511,16.674,3.511
		c7.255,0,13.788-1.598,19.601-4.797c5.81-3.199,10.335-7.566,13.572-13.105c3.236-5.538,4.856-11.778,4.856-18.722
		c0-5.616-1.308-10.549-3.919-14.802C339.707,88.691,336.021,85.396,331.264,83.056 M325.413,119.328
		c-1.562,3.121-3.744,5.559-6.553,7.313s-5.968,2.633-9.478,2.633c-4.525,0-8.056-1.247-10.59-3.743
		c-2.535-2.496-3.802-5.891-3.802-10.182c0-4.055,0.776-7.643,2.339-10.765c1.561-3.118,3.745-5.558,6.553-7.313
		c2.809-1.755,6.006-2.632,9.596-2.632c4.522,0,8.032,1.249,10.53,3.744c2.495,2.497,3.744,5.891,3.744,10.18
		C327.753,112.621,326.973,116.21,325.413,119.328"/>
	<path clip-path="url(#SVGID_2_)" fill="#fff" d="M411.557,118.33c-1.482-4.991-4.29-8.853-8.424-11.583
		c-4.137-2.73-9.36-4.096-15.68-4.096c-6.553,0-12.463,1.58-17.728,4.739c-5.267,3.16-9.38,7.529-12.345,13.104
		c-2.965,5.578-4.445,11.84-4.445,18.781c0,7.801,2.398,13.983,7.196,18.545c4.797,4.564,11.174,6.846,19.131,6.846
		c5.382,0,10.276-1.09,14.684-3.275c4.407-2.184,8.093-5.227,11.059-9.128l-2.341,11.935h5.616l12.17-61.079H414.6L411.557,118.33z
		 M405.355,144.365c-2.497,4.722-5.909,8.406-10.238,11.058c-4.33,2.653-9.225,3.979-14.685,3.979
		c-6.866,0-12.189-1.795-15.974-5.385c-3.783-3.587-5.674-8.617-5.674-15.093c0-5.851,1.247-11.135,3.744-15.854
		c2.496-4.72,5.909-8.426,10.239-11.117s9.224-4.036,14.685-4.036c6.862,0,12.188,1.795,15.973,5.382
		c3.781,3.589,5.675,8.62,5.675,15.095C409.101,134.322,407.852,139.646,405.355,144.365"/>
	<path clip-path="url(#SVGID_2_)" fill="#fff" d="M472.544,80.068c-5.381,0-10.258,1.073-14.626,3.218
		c-4.368,2.146-8.034,5.169-10.999,9.068l2.341-11.818h-5.733l-16.732,83.78h5.852l7.604-37.911
		c1.56,5.071,4.389,8.951,8.483,11.643c4.096,2.691,9.302,4.037,15.621,4.037c6.552,0,12.462-1.58,17.728-4.739
		c5.266-3.16,9.398-7.526,12.402-13.104c3.002-5.578,4.505-11.838,4.505-18.78c0-7.8-2.418-13.984-7.254-18.547
		C486.897,82.35,480.501,80.068,472.544,80.068 M489.335,121.724c-2.457,4.681-5.85,8.366-10.179,11.058s-9.226,4.037-14.686,4.037
		c-6.865,0-12.208-1.794-16.029-5.384c-3.823-3.586-5.734-8.616-5.734-15.094c0-5.927,1.247-11.251,3.745-15.971
		c2.495-4.719,5.908-8.405,10.238-11.058c4.33-2.651,9.224-3.979,14.685-3.979c6.862,0,12.188,1.796,15.973,5.383
		c3.781,3.59,5.675,8.62,5.675,15.094C493.022,111.74,491.793,117.043,489.335,121.724"/>
	<path clip-path="url(#SVGID_2_)" fill="#fff" d="M569.746,72.638c-4.838-4.563-11.233-6.845-19.19-6.845
		c-5.382,0-10.259,1.073-14.626,3.218c-4.37,2.146-8.035,5.169-11,9.068l2.341-11.818h-5.732l-16.733,83.78h5.851l7.606-37.912
		c1.559,5.072,4.388,8.951,8.482,11.643c4.097,2.691,9.303,4.037,15.621,4.037c6.553,0,12.461-1.58,17.728-4.738
		c5.266-3.16,9.398-7.527,12.403-13.105c3.002-5.577,4.504-11.837,4.504-18.781C577,83.385,574.582,77.201,569.746,72.638
		 M567.347,107.449c-2.457,4.68-5.851,8.366-10.179,11.058c-4.33,2.69-9.227,4.036-14.687,4.036c-6.865,0-12.208-1.793-16.03-5.383
		c-3.822-3.586-5.732-8.618-5.732-15.094c0-5.927,1.246-11.251,3.744-15.971c2.496-4.719,5.909-8.405,10.237-11.058
		c4.33-2.651,9.226-3.979,14.686-3.979c6.863,0,12.188,1.796,15.973,5.383c3.782,3.589,5.674,8.62,5.674,15.094
		C571.032,97.465,569.805,102.768,567.347,107.449"/>
	<path clip-path="url(#SVGID_2_)" fill="#fff" d="M318.939,49.587h-44.463l9.268-46.805l-21.051,5.851l-8.109,40.954H213.63
		l-3.707,18.722h40.954l-17.054,86.129c-9.347-3.771-21.818-3.853-34.171,0.644c-21.254,7.736-34.094,26.068-28.679,40.946
		c5.415,14.878,27.035,20.667,48.289,12.933c15.999-5.824,27.231-17.652,29.496-29.492L270.769,68.31h44.463L318.939,49.587z"/>
</g>
</svg>
