<svg xmlns="http://www.w3.org/2000/svg" viewBox="0 0 226.82 293.69"><defs><style>.cls-1{fill:none;stroke:#e5e5e5;stroke-miterlimit:10;stroke-width:3.97px;}</style></defs><title>notamusical-363c51</title><g id="Layer_2" data-name="Layer 2"><g id="Layer_1-2" data-name="Layer 1"><path class="cls-1" d="M68.84,120.34v-4.18a21.85,21.85,0,0,1,16.88-21.3L207.31,62.35a13.92,13.92,0,0,1,17.52,13.42V91.09"/><path class="cls-1" d="M224.83,174.62v55.71a22,22,0,0,1-15.32,20.89l-15.32,5.58c-18,6.07-36.21-7.26-36.21-26.47h0a23.22,23.22,0,0,1,16-22.28l35.51-12.64c9.11-3.07,15.32-11.1,15.32-20.79V8.92a7,7,0,0,0-7-6.94,7.63,7.63,0,0,0-1.78.24L77.2,39.56A11.47,11.47,0,0,0,68.84,50.7V208.09A22,22,0,0,1,53.52,229L17.3,241.52C7.64,244.78,2,253.51,2,263.8H2A27.56,27.56,0,0,0,38.2,290.27l15.32-5.58A22,22,0,0,0,68.84,263.8V208.09"/></g></g></svg>